<?xml version="1.0" encoding="utf-8"?>
<?xml-stylesheet type="text/xsl" href="rss1.xsl"?>
<rss version="2.0" xmlns:atom="http://www.w3.org/2005/Atom" xmlns:content="http://purl.org/rss/1.0/modules/content/" xmlns:dc="http://purl.org/dc/elements/1.1/" xmlns:media="http://search.yahoo.com/mrss/">
<channel>
 <title>Getty</title>
 <link>http://www.gettyimg.com/</link>
 <atom:link href="http://www.gettyimg.com/" rel="self" type="application/rss+xml" />

 
                <item>
                <title><![CDATA[【MTV】Funeral For A Friend - Streetcar (MTV Germany 720p) (WEB-Rip)]]></title>
                <link><![CDATA[https://sharemania.us/threads/funeral-for-a-friend-streetcar-mtv-germany-720p-web-rip.236037/]]></link>
                <description><![CDATA[<article>
<blockquote class="messageText SelectQuoteContainer ugc baseHtml">
<div style="text-align: center"><b><span style="font-size: 18px"><span style="color: #ff8000">Funeral For A Friend - Streetcar (MTV Germany 720p) (WEB-Rip)</span></span></b><br>
<b><span style="color: #ff8000"><img src="https://i.imgur.com/Nqzf1b5.jpg" class="bbCodeImage LbImage" alt="[​IMG]" data-url="https://i.imgur.com/Nqzf1b5.jpg" style=""> <br>
<img src="https://i.imgur.com/kpsUXb7.png" class="bbCodeImage LbImage" alt="[​IMG]" data-url="https://i.imgur.com/kpsUXb7.png" style=""> <br>
<img src="https://i.imgur.com/V3CrLuD.png" class="bbCodeImage LbImage" alt="[​IMG]" data-url="https://i.imgur.com/V3CrLuD.png" style=""> <br>
<img src="https://i.imgur.com/eH0yItW.png" class="bbCodeImage LbImage" alt="[​IMG]" data-url="https://i.imgur.com/eH0yItW.png" style=""> </span></b>​</div><span style="color: #000000">
<div class="ToggleTriggerAnchor bbCodeSpoilerContainer">
<button type="button" class="button bbCodeSpoilerButton ToggleTrigger Tooltip JsOnly" data-target="> .SpoilerTarget"><span>Spoiler: <span class="SpoilerTitle">Mediainfo</span></span></button>
<div class="SpoilerTarget bbCodeSpoilerText">
<div class="bbCodeBlock bbCodeCode">
<div class="type">Code:</div>
<pre>Video
ID                                       : 1
Format                                   : AVC
Format/Info                              : Advanced Video Codec
Format profile                           : High@L3
Format settings                          : CABAC / 4 Ref Frames
Format settings, CABAC                   : Yes
Format settings, Reference frames        : 4 frames
Codec ID                                 : avc1
Codec ID/Info                            : Advanced Video Coding
Duration                                 : 3 min 38 s
Bit rate                                 : 3 500 kb/s
Maximum bit rate                         : 3 000 kb/s
Width                                    : 1 280 pixels
Height                                   : 720 pixels
Display aspect ratio                     : 16:9
Frame rate mode                          : Constant
Frame rate                               : 25.000 FPS
Color space                              : YUV
Chroma subsampling                       : 4:2:0
Bit depth                                : 8 bits
Scan type                                : Progressive
Bits/(Pixel*Frame)                       : 0.152
Stream size                              : 91.9 MiB (97%)
Writing library                          : x264 core 136

Audio
ID                                       : 2
Format                                   : AAC LC
Format/Info                              : Advanced Audio Codec Low Complexity
Codec ID                                 : mp4a-40-2
Duration                                 : 3 min 38 s
Bit rate mode                            : Variable
Bit rate                                 : 96.0 kb/s
Channel(s)                               : 2 channels
Channel layout                           : L R
Sampling rate                            : 44.1 kHz
Frame rate                               : 43.066 FPS (1024 SPF)
Compression mode                         : Lossy
Stream size                              : 2.50 MiB (3%)
Default                                  : Yes
Alternate group                          : 1
</pre>
</div></div>
</div><br>
<div class="bbCodeBlock bbCodeVfcHH HiddenContent">
<div class="attribution type">Hidden Content:</div>
<blockquote>You must either reply or click 'Like' to see the hidden information contained here.</blockquote>
</div></span>
<div class="messageTextEndMarker">&nbsp;</div>
</blockquote>
</article>]]></description>
                <author><![CDATA[thrthjrshytjtsyjnyj]]></author>
                </item>

                </channel></rss>